<svg width="16" height="16" viewBox="0 0 16 16" fill="none" xmlns="http://www.w3.org/2000/svg">
<path d="M7.99993 6.27295C6.79628 6.27295 5.81812 7.25112 5.81812 8.45476C5.81812 9.65841 6.79628 10.6366 7.99993 10.6366C9.20358 10.6366 10.1817 9.65841 10.1817 8.45476C10.1817 7.25112 9.20354 6.27295 7.99993 6.27295Z" fill="#2C2C2C"/>
<path d="M8 3C4.36363 3 1.25819 5.26179 0 8.45454C1.25819 11.6472 4.36363 13.9091 8 13.9091C11.64 13.9091 14.7418 11.6472 16 8.45454C14.7418 5.26179 11.64 3 8 3ZM8 12.0909C5.99273 12.0909 4.36363 10.4618 4.36363 8.4545C4.36363 6.44723 5.99273 4.81817 8 4.81817C10.0073 4.81817 11.6364 6.44727 11.6364 8.45454C11.6364 10.4618 10.0073 12.0909 8 12.0909Z" fill="#2C2C2C"/>
</svg>
