<svg width="738" height="386" viewBox="0 0 738 386" fill="none" xmlns="http://www.w3.org/2000/svg">
<g clip-path="url(#clip0)">
<rect width="738" height="386" fill="#003865"/>
<path d="M196.315 187.528H199.585L208.845 209.925L218.125 187.528H221.297L210.106 213.727H207.506L196.315 187.528Z" fill="white"/>
<path d="M237.768 187.528H234.832V213.53H237.768V187.528Z" fill="white"/>
<path d="M253.569 187.528H256.524V210.832H271.143V213.53H253.569V187.528Z" fill="white"/>
<path d="M284.737 187.528H287.692V210.832H302.331V213.53H284.737V187.528Z" fill="white"/>
<path d="M325.54 187.351H328.298L340.139 213.53H336.987L333.933 206.655H319.767L316.694 213.53H313.679L325.54 187.351ZM332.79 203.976L326.879 190.758L320.929 203.976H332.79Z" fill="white"/>
<path d="M372.785 187.528H375.72V199.071H390.733V187.528H393.669V213.53H390.733V201.829H375.72V213.53H372.785V187.528Z" fill="white"/>
<path d="M408.031 200.608V200.529C408.031 193.359 413.43 187.075 421.33 187.075C429.25 187.075 434.57 193.28 434.57 200.45V200.529C434.57 207.699 429.172 213.983 421.271 213.983C413.351 213.983 408.031 207.778 408.031 200.608ZM431.536 200.608V200.529C431.536 194.619 427.201 189.793 421.271 189.793C415.321 189.793 411.085 194.56 411.085 200.45V200.529C411.085 206.439 415.4 211.265 421.35 211.265C427.28 211.265 431.536 206.518 431.536 200.608Z" fill="white"/>
<path d="M448.952 187.528H451.888V210.832H466.527V213.53H448.952V187.528Z" fill="white"/>
<path d="M482.268 187.528H479.333V213.53H482.268V187.528Z" fill="white"/>
<path d="M499.114 187.528H508.137C516.313 187.528 521.968 193.142 521.968 200.45V200.529C521.968 207.857 516.313 213.53 508.137 213.53H499.114V187.528V187.528ZM502.049 190.246V210.832H508.137C514.717 210.832 518.914 206.36 518.914 200.608V200.529C518.914 194.777 514.717 190.227 508.137 190.227H502.049V190.246Z" fill="white"/>
<path d="M544.251 187.351H547.009L558.85 213.53H555.697L552.663 206.655H538.498L535.404 213.53H532.39L544.251 187.351ZM551.501 203.976L545.59 190.758L539.64 203.976H551.501Z" fill="white"/>
<path d="M576.207 203.248L565.41 187.528H568.976L577.744 200.529L586.59 187.528H589.998L579.202 203.208V213.53H576.207V203.248Z" fill="white"/>
<path d="M599.849 209.748L601.682 207.601C604.381 210.044 606.981 211.285 610.587 211.285C614.074 211.285 616.399 209.433 616.399 206.852V206.774C616.399 204.37 615.099 202.972 609.621 201.829C603.632 200.529 600.874 198.599 600.874 194.324V194.245C600.874 190.168 604.479 187.154 609.424 187.154C613.227 187.154 615.926 188.217 618.566 190.345L616.872 192.61C614.448 190.64 612.025 189.793 609.346 189.793C605.957 189.793 603.829 191.645 603.829 193.989V194.068C603.829 196.511 605.169 197.889 610.882 199.13C616.675 200.391 619.354 202.519 619.354 206.498V206.577C619.354 211.029 615.631 213.944 610.469 213.944C606.351 213.905 602.962 212.526 599.849 209.748Z" fill="white"/>
<path d="M208.609 32.6166C202.836 36.1623 195.96 40.3188 195.192 40.7325C185.164 45.9526 173.402 51.0349 161.817 50.6016C154.567 50.7198 147.159 48.6908 141.662 43.7858C137.387 39.9642 135.436 34.8228 132.461 30.0951C132.244 29.7405 131.811 28.8344 131.378 28.6965C130.452 28.401 130.944 30.233 131.043 30.7058C131.85 34.4879 133.683 37.9352 135.397 41.3825C137.328 45.2829 139.278 49.2029 142.056 52.5714C143.494 54.2852 145.11 55.8414 146.981 57.1022C149.878 59.0523 153.069 60.5888 156.419 61.5738C157.995 62.0466 159.63 62.342 161.265 62.4799C165.363 62.8542 169.954 62.6572 173.993 61.9284C183.095 60.254 191.291 56.5309 198.344 52.3154C185.144 76.6828 175.569 103.119 167.215 129.909L164.319 139.089L164.083 139.187C164.181 139.167 164.26 139.167 164.339 139.148C163.748 141.039 163.196 142.949 162.625 144.841C153.109 176.575 144.341 208.96 128.915 237.878C121.546 251.687 112.464 264.846 100.505 273.553C88.5457 282.259 73.3358 285.963 60.8448 280.27C44.768 272.962 36.5917 251.293 39.2121 231.18C41.8325 211.068 53.5354 192.965 67.8587 180.101C71.602 176.753 75.5818 173.581 79.6207 170.607C83.6596 167.652 87.8758 164.953 92.2299 162.491C96.4658 160.087 100.8 157.842 105.213 155.793C109.686 153.705 114.257 151.794 118.906 150.14C123.97 148.347 129.112 146.81 134.254 145.313C134.885 145.136 135.515 144.919 136.165 144.762C140.697 143.56 145.208 142.437 149.72 141.157C157.542 138.892 156.832 132.903 149.168 134.42C146.45 134.952 143.337 135.681 140.086 136.488C133.742 138.281 127.496 140.428 121.27 142.634C112.956 145.589 104.819 148.682 97.0372 152.838C91.7374 155.655 86.4572 158.59 81.3348 161.722C79.8965 162.609 78.4583 163.515 77.02 164.441C73.0009 167.041 69.0999 169.838 65.3762 172.872C62.0269 175.61 58.8549 178.526 55.8405 181.618C53.1216 184.435 50.5407 187.37 48.0977 190.424C45.891 193.162 43.8026 195.979 41.7536 198.855C40.0002 201.356 38.3058 203.878 36.6706 206.439C35.3308 208.527 34.0502 210.654 32.8484 212.801C31.9224 214.476 31.0358 216.17 30.228 217.923C29.5779 219.322 29.0065 220.74 28.4549 222.178C28.3367 222.493 28.1987 222.828 28.0805 223.143C21.8547 239.355 20.2786 258.069 26.0709 273.612C33.4788 293.566 52.4518 305.642 71.8778 305.878C91.2842 306.115 110.671 295.655 125.526 280.25C140.381 264.846 151.079 244.851 159 224.03C169.658 196.057 175.608 166.45 181.933 137.079L183.706 129.003C186.287 117.282 189.006 105.62 192.217 94.0571C195.389 82.5727 199.132 71.305 203.427 60.1752C204.629 57.0825 205.949 54.0291 207.269 50.9955C207.959 49.4196 208.905 47.9816 209.515 46.386C210.146 44.7116 210.205 43.0372 210.106 41.284C209.87 38.3095 209.476 35.4335 208.609 32.6166Z" fill="white"/>
<path d="M707.363 171.552C702.772 151.578 689.197 136.272 681.06 127.151C679.543 125.437 678.263 123.999 677.297 122.817C683.72 116.258 688.606 109.895 692.192 103.414C698.103 92.757 700.112 78.9875 688.055 72.2899C684.351 70.2216 680.272 69.1381 676.293 69.1381C669.042 69.1381 662.541 72.6051 658.423 78.6526C654.325 84.6608 646.543 101.208 662.619 124.905C645.873 137.966 625.481 145.727 607.73 145.727C589.191 145.727 575.892 137.67 570.04 122.955C587.004 115.568 601.209 104.3 607.415 93.2495C610.567 87.6156 614.645 79.2042 613.621 71.108C612.636 63.524 607.08 59.1705 598.332 59.1705C593.564 59.1705 588.205 60.5101 583.97 62.736C581.94 63.7998 579.931 65.159 578.059 66.6758C567.223 74.7326 550.122 92.166 555.343 119.646C551.993 120.335 548.782 120.69 545.748 120.69C522.46 120.69 512.826 99.4743 504.315 80.7407C497.931 66.6561 492.415 54.5019 482.111 52.0396C480.712 51.7047 479.274 51.5274 477.835 51.5274C467.63 51.5274 457.936 60.0767 449.938 69.6306C439.85 82.7303 433.624 100.853 433.624 100.853C433.447 98.8439 432.6 93.2101 432.56 93.2495C432.265 90.334 431.93 87.5959 431.575 84.9957C431.457 84.1289 431.359 83.5773 431.359 83.5773C428.423 63.6028 423.438 53.4973 416.503 53.4973C415.637 53.4973 414.77 53.6746 414.179 53.9307C403.559 56.787 383.266 79.9725 374.065 91.0038C374.854 84.3456 375.74 75.1857 374.991 71.9354C374.991 71.9157 374.794 71.2656 374.775 71.2459C373.376 67.4637 369.593 66.5773 365.791 69.9458C364.963 70.6746 363.663 72.2899 361.043 75.5402C351.684 87.1822 329.776 114.426 308.478 120.414C300.637 122.62 293.977 121.123 288.875 115.982C282.255 109.324 279.969 98.4893 280.028 91.2599C280.048 89.684 279.556 88.3248 278.669 87.4383C276.659 85.4093 273.172 86.5125 271.734 89.9401C266.099 103.493 259.755 113.52 249.904 124.531C243.146 132.076 235.325 136.587 229.02 136.587C226.833 136.587 223.898 136.016 222.282 133.238C219.819 129.003 221.297 121.458 226.321 112.535C230.912 104.399 237.078 97.3271 244.821 92.0675C247.363 90.334 250.18 89.093 252.781 87.4777C254.573 86.3746 256.445 84.582 256.563 82.356C256.701 79.9725 254.376 78.3966 252.249 78.0026C250.377 77.648 248.328 78.692 246.673 79.4406C242.24 81.4893 237.709 83.794 233.709 86.611C228.39 90.334 223.425 94.7072 219.228 99.6713C216.825 102.508 214.598 105.561 212.608 108.693C209.161 114.11 201.457 127.86 204.55 138.163C205.811 142.398 208.707 145.55 213.14 147.539C215.327 148.505 217.889 149.135 220.962 149.45C244.663 151.775 264.602 119.981 272.601 105.01C273.586 114.248 277.388 128.294 290.884 132.647C293.347 133.435 295.987 133.849 298.745 133.849C323.018 133.849 351.94 102.626 357.733 96.1058L363.17 89.9007L360.826 114.918C360.708 116.179 361.102 117.361 361.909 118.247C362.855 119.291 364.333 119.882 365.968 119.882C368.332 119.882 370.401 118.641 371.169 116.79C387.049 92.3433 408.544 64.174 414.119 62.6966C414.316 62.6375 414.494 62.6178 414.651 62.6178C417.863 62.6178 418.749 75.5599 419.36 84.9957C420.148 96.7164 420.956 108.831 425.113 115.45C426.591 117.794 428.403 118.287 429.645 118.287C431.063 118.287 435.398 118.287 442.766 103.926C443.633 102.488 444.815 99.9667 446.293 96.7952C452.184 84.2668 464.97 57.4764 476.594 60.7661C481.933 62.2829 486.445 73.4916 491.213 85.3502C497.912 102.055 505.536 120.985 519.761 126.403C530.203 130.382 543.6 130.736 557.273 127.545C557.648 128.688 558.101 130.027 558.456 130.756C565.923 146.495 582.393 155.517 603.691 155.517C624.772 155.517 647.587 146.771 666.599 131.465C669.495 135.562 679.662 150.731 680.351 151.932C686.518 162.589 692.724 175.196 691.857 187.745C691.128 198.618 681.77 210.792 670.067 208.704C662.994 207.424 659.152 202.164 657.142 197.988C652.808 188.867 652.867 175.472 657.28 167.514C658.699 164.953 660.137 162.373 662.068 160.147C663.644 158.334 666.58 156.443 665.89 153.666C665.693 152.897 665.141 151.972 664.412 151.656C660.708 150.12 656.157 156.955 654.384 159.122C651.035 163.2 647.902 167.632 645.755 172.458C638.721 188.217 641.834 198.618 645.696 204.567C650.956 212.683 660.787 217.509 672.017 217.509C673.121 217.509 674.244 217.47 675.367 217.352C686.616 216.328 696.113 211.245 702.063 203.031C708.348 194.541 710.14 183.647 707.363 171.552ZM585.664 72.743C588.146 71.4232 590.57 70.714 592.658 70.714C594.274 70.714 596.441 71.1474 597.721 73.1961C599.81 76.5646 598.884 82.8091 595.16 90.3143C588.954 102.862 577.192 110.447 567.972 115.214C566.868 107.767 565.41 84.7593 585.664 72.743ZM671.781 112.672C669.673 105.817 667.289 95.7512 671.052 87.4383C672.667 83.8531 677.219 79.8543 681.159 79.8543C681.612 79.8543 682.046 79.9134 682.479 80.0119C687.129 81.1544 688.784 86.2761 687.976 90.531C686.932 96.1255 683.346 101.405 679.957 105.857C677.751 108.752 675.248 111.55 672.352 114.347C672.135 113.776 671.958 113.224 671.781 112.672Z" fill="white"/>
</g>
<defs>
<clipPath id="clip0">
<rect width="738" height="386" fill="white"/>
</clipPath>
</defs>
</svg>
