<?xml version="1.0" encoding="utf-8"?>
<!-- Generator: Adobe Illustrator 26.4.1, SVG Export Plug-In . SVG Version: 6.00 Build 0)  -->
<svg version="1.1" id="Layer_1" xmlns="http://www.w3.org/2000/svg" xmlns:xlink="http://www.w3.org/1999/xlink" x="0px" y="0px"
	 viewBox="0 0 217.33 131.33" style="enable-background:new 0 0 217.33 131.33;" xml:space="preserve">
<style type="text/css">
	.st0{fill:#173A64;}
	.st1{font-family:'ArialMT';}
	.st2{font-size:25.1185px;}
	.st3{letter-spacing:1;}
</style>
<g>
	<path class="st0" d="M25.25,76.15h-3.53v10.94h-2.39V76.15h-3.75v-1.98h10.24L25.25,76.15z"/>
	<path class="st0" d="M30.83,79.99c-0.39-0.24-0.8-0.29-1.1-0.29c-0.55,0-1.16,0.25-1.78,0.82v6.57H25.6v-9.28h1.98l0.27,0.98
		c0.94-0.84,1.67-1.2,2.57-1.2c0.43,0,0.94,0.14,1.29,0.39L30.83,79.99z"/>
	<path class="st0" d="M38.01,87.09l-0.39-0.82c-0.61,0.55-1.45,1.02-2.69,1.02c-1.71,0-3.04-1.16-3.04-2.98
		c0-1.92,1.51-2.96,3.9-3.04l1.65-0.06c0-0.08,0-0.18,0-0.24c0-1.12-0.8-1.57-1.78-1.57c-1,0-1.8,0.33-2.39,0.69l-0.75-1.47
		c1.24-0.82,2.39-1.02,3.63-1.02c2.29,0,3.67,0.94,3.67,3.37v3.67c0,1.33,0.04,2.02,0.18,2.45H38.01z M37.42,82.83l-1.33,0.04
		c-1.27,0.04-1.84,0.47-1.84,1.26c0,0.76,0.53,1.29,1.51,1.29c0.82,0,1.37-0.31,1.67-0.59V82.83z"/>
	<path class="st0" d="M46.2,87.15H44.5l-3.82-9.33h2.41l2.31,6.31h0.04l2.35-6.31h2.27L46.2,87.15z"/>
	<path class="st0" d="M52.91,83.07c0.04,1.37,1.18,2.33,2.61,2.33c0.88,0,1.61-0.22,2.41-0.65l0.57,1.51
		c-1.04,0.73-2.27,1.02-3.37,1.02c-3.24,0-4.61-2.35-4.61-4.84c0-2.65,1.57-4.84,4.22-4.84c2.51,0,4.16,1.9,4.16,4.78
		c0,0.16,0,0.39,0,0.69H52.91z M54.67,79.36c-1.14,0-1.82,1.02-1.82,2.04h3.61C56.42,80.4,55.87,79.36,54.67,79.36z"/>
	<path class="st0" d="M62.79,87.29c-1.55,0-2.14-0.88-2.14-2.04V73.21h2.35v11c0,0.69,0.14,0.96,0.63,0.96
		c0.16,0,0.35-0.02,0.69-0.1l0.29,1.75C63.93,87.19,63.32,87.29,62.79,87.29z"/>
	<path class="st0" d="M80.75,87.15h-1.78l-2.08-6.31h-0.06l-2.08,6.31h-1.78l-3.37-9.33h2.39l1.98,6.27h0.06l2.04-6.27h1.78
		l2.08,6.3h0.04l1.96-6.3h2.26L80.75,87.15z"/>
	<path class="st0" d="M86.79,76.38c-0.82,0-1.45-0.63-1.45-1.43c0-0.76,0.63-1.41,1.45-1.41c0.82,0,1.45,0.63,1.45,1.41
		C88.24,75.73,87.62,76.38,86.79,76.38z M85.62,87.09v-9.28h2.35v9.28H85.62z"/>
	<path class="st0" d="M93.58,87.29c-1.65,0-2.29-0.92-2.29-2.18v-5.53h-1.65v-1.77h1.65v-2.14l2.35-0.71v2.84h2.88l-0.69,1.77h-2.2
		v4.67c0,0.73,0.27,1.06,0.88,1.06c0.59,0,1.2-0.27,1.55-0.51l0.63,1.49C95.74,86.97,94.48,87.29,93.58,87.29z"/>
	<path class="st0" d="M104.01,87.09v-5.41c0-1.04-0.16-2.02-1.41-2.02c-0.8,0-1.63,0.45-2.26,0.98v6.45h-2.35V73.21h2.35v5.61
		c0.86-0.71,1.88-1.22,3.08-1.22c1.43,0,2.96,0.69,2.96,3.41v6.08H104.01z"/>
	<path class="st0" d="M117.32,87.29c-3.02,0-4.57-2.18-4.57-4.79c0-2.82,2.04-4.9,4.8-4.9c1.26,0,2.12,0.31,2.65,0.65l-0.04,1.92
		c-0.65-0.49-1.37-0.76-2.33-0.76c-1.59,0-2.73,1.25-2.73,2.98c0,1.59,0.86,3,2.71,3c0.88,0,1.55-0.27,2.2-0.65l0.59,1.55
		C119.85,86.8,118.6,87.29,117.32,87.29z"/>
	<path class="st0" d="M129.48,85.95c-0.82,0.84-1.96,1.33-3.35,1.33c-1.29,0-2.39-0.41-3.2-1.16c-0.92-0.86-1.43-2.14-1.43-3.63
		c0-1.45,0.49-2.71,1.35-3.59c0.82-0.82,1.94-1.31,3.29-1.31c1.43,0,2.59,0.49,3.41,1.33c0.8,0.86,1.24,2.08,1.24,3.49
		C130.8,83.83,130.35,85.09,129.48,85.95z M126.11,79.46c-1.49,0-2.22,1.26-2.22,2.98c0,1.8,0.84,3.02,2.27,3.02
		c1.47,0,2.22-1.27,2.22-3.02C128.38,80.66,127.56,79.46,126.11,79.46z"/>
	<path class="st0" d="M138.66,87.09v-5.45c0-0.96-0.18-2.02-1.37-2.02c-0.82,0-1.63,0.43-2.35,0.98v6.49h-2.35v-9.28h2l0.25,1
		c1-0.74,2-1.22,3.26-1.22c1.41,0,2.92,0.84,2.92,3.33v6.16H138.66z"/>
	<path class="st0" d="M148.52,75.34c-0.37-0.16-0.78-0.25-1.18-0.25c-0.74,0-1.1,0.45-1.1,1.25v1.47h2.45l-0.61,1.8h-1.84v7.47
		h-2.35v-7.47h-1.35v-1.8h1.35v-1.29c0-2.75,1.98-3.31,3.28-3.31c0.49,0,1.22,0.12,1.82,0.41L148.52,75.34z"/>
	<path class="st0" d="M151.48,76.38c-0.82,0-1.45-0.63-1.45-1.43c0-0.76,0.63-1.41,1.45-1.41c0.82,0,1.45,0.63,1.45,1.41
		C152.93,75.73,152.31,76.38,151.48,76.38z M150.31,87.09v-9.28h2.35v9.28H150.31z"/>
	<path class="st0" d="M159.76,87.29c-2.76,0-5.04-1.63-5.04-4.77c0-2.88,2.14-4.92,5.14-4.92c0.47,0,0.84,0.02,1.18,0.08v-4.47h2.35
		v13.34C162.5,86.99,161.35,87.29,159.76,87.29z M161.03,79.6c-0.31-0.08-0.59-0.14-1.1-0.14c-1.67,0-2.86,1.12-2.86,2.94
		c0,1.69,1.1,2.94,2.9,2.94c0.37,0,0.78-0.06,1.06-0.14V79.6z"/>
	<path class="st0" d="M167.5,83.07c0.04,1.37,1.18,2.33,2.61,2.33c0.88,0,1.61-0.22,2.41-0.65l0.57,1.51
		c-1.04,0.73-2.27,1.02-3.37,1.02c-3.24,0-4.61-2.35-4.61-4.84c0-2.65,1.57-4.84,4.22-4.84c2.51,0,4.16,1.9,4.16,4.78
		c0,0.16,0,0.39,0,0.69H167.5z M169.27,79.36c-1.14,0-1.82,1.02-1.82,2.04h3.61C171.01,80.4,170.46,79.36,169.27,79.36z"/>
	<path class="st0" d="M181.33,87.09v-5.45c0-0.96-0.18-2.02-1.37-2.02c-0.82,0-1.63,0.43-2.35,0.98v6.49h-2.35v-9.28h2l0.25,1
		c1-0.74,2-1.22,3.26-1.22c1.41,0,2.92,0.84,2.92,3.33v6.16H181.33z"/>
	<path class="st0" d="M189.97,87.29c-3.02,0-4.57-2.18-4.57-4.79c0-2.82,2.04-4.9,4.8-4.9c1.25,0,2.12,0.31,2.65,0.65l-0.04,1.92
		c-0.65-0.49-1.37-0.76-2.33-0.76c-1.59,0-2.73,1.25-2.73,2.98c0,1.59,0.86,3,2.71,3c0.88,0,1.55-0.27,2.2-0.65l0.59,1.55
		C192.5,86.8,191.25,87.29,189.97,87.29z"/>
	<path class="st0" d="M196.54,83.07c0.04,1.37,1.18,2.33,2.61,2.33c0.88,0,1.61-0.22,2.41-0.65l0.57,1.51
		c-1.04,0.73-2.27,1.02-3.37,1.02c-3.24,0-4.61-2.35-4.61-4.84c0-2.65,1.57-4.84,4.22-4.84c2.51,0,4.16,1.9,4.16,4.78
		c0,0.16,0,0.39,0,0.69H196.54z M198.31,79.36c-1.14,0-1.82,1.02-1.82,2.04h3.61C200.05,80.4,199.51,79.36,198.31,79.36z"/>
</g>
<g>
	<g>
		<g>
			<path class="st0" d="M121.64,62.34H107.8V18.75h13.62c8.8,0,12.84,6.02,12.84,11.31c0,4.17-1.72,6.95-5.22,9.06v0.13
				c5.03,1.12,8.07,4.63,8.07,9.92C137.11,55.4,132.61,62.34,121.64,62.34z M120.31,25.5h-4.5v11.37h4.23
				c3.58,0,6.22-2.31,6.22-5.96C126.26,27.81,124.14,25.5,120.31,25.5z M121.83,43.55h-6.02V55.6h5.1c5.36,0,8-2.39,8-6.35
				C128.9,45.87,126.32,43.55,121.83,43.55z"/>
			<path class="st0" d="M169.21,25.43h-11.61v36.91h-8.07V25.43H136.9v-6.68h34.91L169.21,25.43z"/>
		</g>
		<path class="st0" d="M95.63,62.34l-4.31-10.93H75.76l-4.04,10.93h-8.01l16.87-43.6h6l17.47,43.6H95.63z M85.3,34.85
			c-0.8-2.18-1.33-3.97-1.65-5.42h-0.07c-0.26,1.52-0.85,3.24-1.58,5.29l-3.78,10.15h10.61L85.3,34.85z"/>
		<path class="st0" d="M195.49,62.34l-4.3-10.93h-15.56l-4.04,10.93h-8.01l16.86-43.6h6l17.46,43.6H195.49z M185.16,34.85
			c-0.8-2.18-1.33-3.97-1.65-5.42h-0.07c-0.26,1.52-0.86,3.24-1.59,5.29l-3.78,10.15h10.61L185.16,34.85z"/>
	</g>
	<g>
		<g>
			<path class="st0" d="M31.81,34.2v-2L19.2,19.58c-0.7,0.63-1.37,1.29-2,1.99L29.82,34.2H31.81z"/>
			<path class="st0" d="M31.81,43.99v2L19.2,58.6c-0.7-0.63-1.37-1.29-2-1.99l12.62-12.62H31.81z"/>
			<path class="st0" d="M31.81,36.71H10.54c-0.08,0.81-0.12,1.63-0.12,2.45c0,0.83,0.04,1.64,0.12,2.45h21.27V36.71z"/>
		</g>
		<g>
			<g>
				<path class="st0" d="M36.77,12.82c-0.83,0-1.65,0.04-2.47,0.12v4.24h0v46.55h0v1.66c0.81,0.08,1.63,0.12,2.47,0.12
					c14.55,0,26.34-11.8,26.34-26.35C63.11,24.62,51.32,12.82,36.77,12.82z M46.4,41.57c-0.11,1.68-0.32,3.32-0.65,4.92h-6.17v-4.92
					H46.4z M39.57,36.65v-4.92h6.14c0.33,1.59,0.56,3.24,0.67,4.92H39.57z M51.58,41.57h6.18c-0.19,1.71-0.58,3.36-1.16,4.92h-5.68
					C51.24,44.89,51.47,43.25,51.58,41.57z M51.57,36.65c-0.12-1.68-0.35-3.33-0.69-4.92h5.67c0.59,1.56,0.98,3.2,1.19,4.92H51.57z
					 M53.9,26.81h-4.45c-0.88-2.38-2.01-4.59-3.35-6.61C49.21,21.74,51.89,24.02,53.9,26.81z M44.3,26.81h-4.73v-8.58
					C41.53,20.74,43.13,23.64,44.3,26.81z M39.57,60.11v-8.7h4.78C43.18,54.63,41.56,57.57,39.57,60.11
					C39.58,60.11,39.58,60.11,39.57,60.11z M46.15,58.1c1.35-2.04,2.48-4.29,3.36-6.69h4.47C51.97,54.23,49.28,56.54,46.15,58.1z"/>
			</g>
			<path class="st0" d="M15.81,23.25c-2.41,3.16-4.11,6.89-4.87,10.95h15.82L15.81,23.25z"/>
			<path class="st0" d="M31.81,29.14V13.33c-4.05,0.77-7.78,2.47-10.94,4.87L31.81,29.14z"/>
			<path class="st0" d="M20.87,59.99c3.17,2.4,6.89,4.1,10.94,4.87V49.05L20.87,59.99z"/>
			<path class="st0" d="M26.76,43.99H10.94c0.77,4.06,2.47,7.78,4.87,10.95L26.76,43.99z"/>
		</g>
	</g>
</g>
<g>
	<g>
		<text transform="matrix(1 0 0 1 12.1967 121.5575)" class="st0 st1 st2 st3">ABTA No.P8437</text>
	</g>
</g>
</svg>
