<?xml version="1.0" encoding="utf-8"?>
<!-- Generator: Adobe Illustrator 26.4.1, SVG Export Plug-In . SVG Version: 6.00 Build 0)  -->
<svg version="1.1" id="Layer_1" xmlns="http://www.w3.org/2000/svg" xmlns:xlink="http://www.w3.org/1999/xlink" x="0px" y="0px"
	 viewBox="0 0 224.43 137.87" style="enable-background:new 0 0 224.43 137.87;" xml:space="preserve">
<style type="text/css">
	.st0{fill:#FFFFFF;}
	.st1{font-family:'ArialMT';}
	.st2{font-size:25.1687px;}
	.st3{letter-spacing:1;}
</style>
<g>
	<path class="st0" d="M25.84,79.49H22.3v10.96h-2.4V79.49h-3.75V77.5h10.26L25.84,79.49z"/>
	<path class="st0" d="M31.44,83.34c-0.39-0.24-0.81-0.29-1.1-0.29c-0.55,0-1.16,0.26-1.79,0.82v6.58h-2.36v-9.29h1.98l0.27,0.98
		c0.94-0.84,1.67-1.2,2.57-1.2c0.43,0,0.94,0.14,1.3,0.39L31.44,83.34z"/>
	<path class="st0" d="M38.63,90.45l-0.39-0.83c-0.61,0.55-1.45,1.02-2.69,1.02c-1.71,0-3.05-1.16-3.05-2.99
		c0-1.93,1.51-2.97,3.91-3.05l1.65-0.06c0-0.08,0-0.18,0-0.24c0-1.12-0.81-1.57-1.79-1.57c-1,0-1.81,0.33-2.4,0.69l-0.75-1.47
		c1.24-0.82,2.4-1.02,3.64-1.02c2.3,0,3.67,0.94,3.67,3.38V88c0,1.34,0.04,2.02,0.18,2.46H38.63z M38.04,86.19l-1.34,0.04
		c-1.28,0.04-1.85,0.47-1.85,1.26c0,0.77,0.53,1.3,1.51,1.3c0.83,0,1.38-0.31,1.67-0.59V86.19z"/>
	<path class="st0" d="M46.84,90.51h-1.71l-3.83-9.35h2.42l2.32,6.33h0.04l2.36-6.33h2.28L46.84,90.51z"/>
	<path class="st0" d="M53.56,86.42c0.04,1.38,1.18,2.34,2.61,2.34c0.88,0,1.61-0.22,2.42-0.65l0.57,1.51
		c-1.04,0.73-2.28,1.02-3.38,1.02c-3.24,0-4.62-2.36-4.62-4.85c0-2.65,1.57-4.85,4.22-4.85c2.52,0,4.17,1.91,4.17,4.79
		c0,0.16,0,0.39,0,0.69H53.56z M55.32,82.71c-1.14,0-1.83,1.02-1.83,2.04h3.62C57.07,83.75,56.52,82.71,55.32,82.71z"/>
	<path class="st0" d="M63.46,90.65c-1.55,0-2.14-0.88-2.14-2.04V76.54h2.36v11.02c0,0.69,0.14,0.96,0.63,0.96
		c0.16,0,0.35-0.02,0.69-0.1l0.29,1.75C64.6,90.55,63.99,90.65,63.46,90.65z"/>
	<path class="st0" d="M81.46,90.51h-1.79l-2.08-6.33h-0.06l-2.08,6.33h-1.79l-3.38-9.35h2.4l1.98,6.29h0.06l2.04-6.29h1.79
		l2.08,6.31h0.04l1.96-6.31h2.26L81.46,90.51z"/>
	<path class="st0" d="M87.51,79.72c-0.83,0-1.45-0.63-1.45-1.43c0-0.77,0.63-1.41,1.45-1.41c0.83,0,1.45,0.63,1.45,1.41
		C88.96,79.07,88.33,79.72,87.51,79.72z M86.33,90.45v-9.29h2.36v9.29H86.33z"/>
	<path class="st0" d="M94.31,90.65c-1.65,0-2.3-0.92-2.3-2.18v-5.54h-1.65v-1.77h1.65v-2.14l2.36-0.71v2.85h2.89l-0.69,1.77h-2.2
		v4.68c0,0.73,0.28,1.06,0.88,1.06c0.59,0,1.2-0.27,1.55-0.51l0.63,1.49C96.47,90.33,95.21,90.65,94.31,90.65z"/>
	<path class="st0" d="M104.76,90.45v-5.42c0-1.04-0.16-2.02-1.41-2.02c-0.81,0-1.63,0.45-2.26,0.98v6.46h-2.36V76.54h2.36v5.62
		c0.86-0.71,1.89-1.22,3.08-1.22c1.43,0,2.97,0.69,2.97,3.42v6.09H104.76z"/>
	<path class="st0" d="M118.1,90.65c-3.03,0-4.58-2.18-4.58-4.79c0-2.83,2.04-4.91,4.81-4.91c1.26,0,2.12,0.31,2.65,0.65l-0.04,1.93
		c-0.65-0.49-1.38-0.77-2.34-0.77c-1.59,0-2.73,1.26-2.73,2.99c0,1.59,0.86,3.01,2.71,3.01c0.88,0,1.55-0.27,2.2-0.65l0.59,1.55
		C120.64,90.16,119.38,90.65,118.1,90.65z"/>
	<path class="st0" d="M130.28,89.31c-0.83,0.84-1.97,1.34-3.36,1.34c-1.3,0-2.4-0.41-3.2-1.16c-0.92-0.86-1.43-2.14-1.43-3.64
		c0-1.45,0.49-2.71,1.36-3.6c0.82-0.83,1.95-1.32,3.3-1.32c1.43,0,2.59,0.49,3.42,1.34c0.81,0.86,1.24,2.08,1.24,3.5
		C131.6,87.19,131.15,88.45,130.28,89.31z M126.9,82.81c-1.49,0-2.22,1.26-2.22,2.99c0,1.81,0.84,3.03,2.28,3.03
		c1.47,0,2.22-1.28,2.22-3.03C129.18,84.01,128.36,82.81,126.9,82.81z"/>
	<path class="st0" d="M139.48,90.45v-5.46c0-0.96-0.18-2.02-1.38-2.02c-0.83,0-1.63,0.43-2.36,0.98v6.5h-2.36v-9.29h2l0.26,1
		c1-0.75,2-1.22,3.26-1.22c1.41,0,2.93,0.85,2.93,3.34v6.17H139.48z"/>
	<path class="st0" d="M149.36,78.68c-0.37-0.16-0.79-0.26-1.18-0.26c-0.75,0-1.1,0.45-1.1,1.26v1.47h2.46l-0.61,1.81h-1.85v7.49
		h-2.36v-7.49h-1.36v-1.81h1.36v-1.3c0-2.75,1.99-3.32,3.28-3.32c0.49,0,1.22,0.12,1.83,0.41L149.36,78.68z"/>
	<path class="st0" d="M152.33,79.72c-0.83,0-1.45-0.63-1.45-1.43c0-0.77,0.63-1.41,1.45-1.41c0.83,0,1.45,0.63,1.45,1.41
		C153.78,79.07,153.15,79.72,152.33,79.72z M151.15,90.45v-9.29h2.36v9.29H151.15z"/>
	<path class="st0" d="M160.62,90.65c-2.77,0-5.05-1.63-5.05-4.77c0-2.89,2.14-4.93,5.15-4.93c0.47,0,0.84,0.02,1.18,0.08v-4.48h2.36
		V89.9C163.37,90.35,162.21,90.65,160.62,90.65z M161.9,82.95c-0.31-0.08-0.59-0.14-1.1-0.14c-1.67,0-2.87,1.12-2.87,2.95
		c0,1.69,1.1,2.95,2.91,2.95c0.37,0,0.79-0.06,1.06-0.14V82.95z"/>
	<path class="st0" d="M168.38,86.42c0.04,1.38,1.18,2.34,2.61,2.34c0.88,0,1.61-0.22,2.42-0.65l0.57,1.51
		c-1.04,0.73-2.28,1.02-3.38,1.02c-3.24,0-4.62-2.36-4.62-4.85c0-2.65,1.57-4.85,4.22-4.85c2.52,0,4.17,1.91,4.17,4.79
		c0,0.16,0,0.39,0,0.69H168.38z M170.15,82.71c-1.14,0-1.83,1.02-1.83,2.04h3.62C171.9,83.75,171.35,82.71,170.15,82.71z"/>
	<path class="st0" d="M182.23,90.45v-5.46c0-0.96-0.18-2.02-1.38-2.02c-0.83,0-1.63,0.43-2.36,0.98v6.5h-2.36v-9.29h2l0.26,1
		c1-0.75,2-1.22,3.26-1.22c1.41,0,2.93,0.85,2.93,3.34v6.17H182.23z"/>
	<path class="st0" d="M190.9,90.65c-3.03,0-4.58-2.18-4.58-4.79c0-2.83,2.04-4.91,4.81-4.91c1.26,0,2.12,0.31,2.65,0.65l-0.04,1.93
		c-0.65-0.49-1.38-0.77-2.34-0.77c-1.59,0-2.73,1.26-2.73,2.99c0,1.59,0.86,3.01,2.71,3.01c0.88,0,1.55-0.27,2.2-0.65l0.59,1.55
		C193.43,90.16,192.17,90.65,190.9,90.65z"/>
	<path class="st0" d="M197.48,86.42c0.04,1.38,1.18,2.34,2.61,2.34c0.88,0,1.61-0.22,2.42-0.65l0.57,1.51
		c-1.04,0.73-2.28,1.02-3.38,1.02c-3.24,0-4.62-2.36-4.62-4.85c0-2.65,1.57-4.85,4.22-4.85c2.52,0,4.17,1.91,4.17,4.79
		c0,0.16,0,0.39,0,0.69H197.48z M199.25,82.71c-1.14,0-1.83,1.02-1.83,2.04h3.62C201,83.75,200.45,82.71,199.25,82.71z"/>
</g>
<g>
	<g>
		<g>
			<path class="st0" d="M122.42,65.65h-13.86V21.97h13.65c8.82,0,12.86,6.03,12.86,11.33c0,4.18-1.73,6.96-5.23,9.08v0.13
				c5.04,1.12,8.08,4.64,8.08,9.94C137.92,58.7,133.41,65.65,122.42,65.65z M121.09,28.74h-4.51v11.4h4.24
				c3.59,0,6.24-2.31,6.24-5.97C127.05,31.06,124.93,28.74,121.09,28.74z M122.61,46.83h-6.03v12.07h5.11
				c5.37,0,8.02-2.39,8.02-6.36C129.7,49.15,127.11,46.83,122.61,46.83z"/>
			<path class="st0" d="M170.09,28.67h-11.63v36.98h-8.09V28.67h-12.66v-6.7h34.98L170.09,28.67z"/>
		</g>
		<path class="st0" d="M96.36,65.65L92.04,54.7H76.45l-4.05,10.95h-8.03l16.9-43.69h6.01l17.5,43.69H96.36z M86.01,38.11
			c-0.8-2.19-1.33-3.98-1.66-5.43h-0.07c-0.26,1.52-0.85,3.25-1.59,5.31l-3.79,10.17h10.63L86.01,38.11z"/>
		<path class="st0" d="M196.42,65.65l-4.31-10.95h-15.59l-4.04,10.95h-8.03l16.9-43.69h6.01l17.5,43.69H196.42z M186.07,38.11
			c-0.8-2.19-1.33-3.98-1.66-5.43h-0.07c-0.26,1.52-0.86,3.25-1.59,5.31l-3.79,10.17h10.63L186.07,38.11z"/>
	</g>
	<g>
		<path class="st0" d="M37.38,16.04c-0.83,0-1.66,0.04-2.47,0.12v4.25h0v46.64h0v1.66c0.81,0.08,1.64,0.12,2.47,0.12
			c14.58,0,26.39-11.82,26.39-26.4C63.78,27.85,51.96,16.04,37.38,16.04z M47.03,44.84c-0.11,1.68-0.32,3.33-0.65,4.93h-6.18v-4.93
			H47.03z M40.19,39.91v-4.93h6.15c0.33,1.59,0.56,3.24,0.67,4.93H40.19z M52.22,44.84h6.19c-0.19,1.71-0.58,3.36-1.16,4.93h-5.69
			C51.89,48.17,52.11,46.52,52.22,44.84z M52.22,39.91c-0.12-1.69-0.35-3.33-0.69-4.93h5.68c0.59,1.56,0.99,3.21,1.19,4.93H52.22z
			 M54.55,30.05H50.1c-0.89-2.38-2.02-4.6-3.36-6.62C49.85,24.97,52.53,27.25,54.55,30.05z M44.93,30.05h-4.74v-8.6
			C42.15,23.97,43.75,26.87,44.93,30.05z M40.19,63.42V54.7h4.78C43.8,57.92,42.18,60.87,40.19,63.42
			C40.2,63.42,40.2,63.42,40.19,63.42z M46.79,61.4c1.35-2.04,2.48-4.29,3.37-6.7h4.48C52.61,57.53,49.92,59.84,46.79,61.4z"/>
		<path class="st0" d="M32.41,37.45v-2L19.78,22.81c-0.7,0.63-1.37,1.3-2,1.99l12.65,12.65H32.41z"/>
		<path class="st0" d="M32.41,47.27v2L19.78,61.91c-0.7-0.63-1.37-1.3-2-2l12.65-12.65H32.41z"/>
		<path class="st0" d="M32.41,39.97H11.1c-0.08,0.81-0.12,1.63-0.12,2.46c0,0.83,0.04,1.65,0.12,2.46h21.32V39.97z"/>
		<path class="st0" d="M16.39,26.48c-2.41,3.17-4.12,6.9-4.88,10.97h15.86L16.39,26.48z"/>
		<path class="st0" d="M32.41,32.39V16.54c-4.06,0.77-7.79,2.47-10.97,4.88L32.41,32.39z"/>
		<path class="st0" d="M21.45,63.3c3.17,2.41,6.9,4.11,10.96,4.88V52.33L21.45,63.3z"/>
		<path class="st0" d="M27.36,47.27H11.5c0.77,4.07,2.47,7.8,4.88,10.97L27.36,47.27z"/>
	</g>
</g>
<g>
	<g>
		<text transform="matrix(1 0 0 1 15.1136 123.2649)" class="st0 st1 st2 st3">ABTA No.P8437</text>
	</g>
</g>
</svg>
