<svg width="16" height="16" viewBox="0 0 16 16" fill="none" xmlns="http://www.w3.org/2000/svg">
<path d="M8.15234 1C6.1169 1 4.46094 2.65596 4.46094 4.69141C4.46094 6.72685 6.1169 8.38281 8.15234 8.38281C10.1878 8.38281 11.8438 6.72685 11.8438 4.69141C11.8438 2.65596 10.1878 1 8.15234 1Z" fill="#2C2C2C"/>
<path d="M12.7452 10.7944C11.7345 9.76824 10.3948 9.20312 8.97266 9.20312H7.33203C5.90994 9.20312 4.57015 9.76824 3.55952 10.7944C2.55385 11.8155 2 13.1634 2 14.5898C2 14.8164 2.18364 15 2.41016 15H13.8945C14.121 15 14.3047 14.8164 14.3047 14.5898C14.3047 13.1634 13.7508 11.8155 12.7452 10.7944Z" fill="#2C2C2C"/>
</svg>
