<svg width="253" height="59" viewBox="0 0 253 59" fill="none" xmlns="http://www.w3.org/2000/svg">
<path d="M67.8077 40.7942V39.4035C67.8077 23.4735 58.4941 13.6121 44.8399 13.6121C39.0242 13.6121 33.3349 15.9721 29.0363 20.3128C24.7799 24.5692 22.5042 30.0478 22.5042 36.0321C22.5042 42.1006 24.6534 47.5371 28.7834 51.8778C33.1663 56.5135 38.4341 58.7471 44.9663 58.7471C54.5327 58.7471 61.6127 54.1956 65.7849 45.2613H51.9199C50.0234 46.9471 47.9163 47.6213 45.3877 47.6213C39.9092 47.6213 36.5799 45.2614 35.4841 40.6678L67.8077 40.7942ZM55.1227 31.8599H35.1049C35.9899 27.7721 39.7406 25.0749 45.0084 25.0749C50.0234 25.1171 53.6056 27.4771 55.1227 31.8599Z" fill="#494545"/>
<path d="M115.514 40.7942V39.4035C115.514 23.4735 106.2 13.6121 92.5457 13.6121C86.73 13.6121 81.0407 15.9721 76.7421 20.3128C72.4857 24.5692 70.21 30.0478 70.21 36.0321C70.21 42.1006 72.3592 47.5371 76.4892 51.8778C80.8721 56.5135 86.14 58.7471 92.6721 58.7471C102.239 58.7471 109.319 54.1956 113.491 45.2613H99.6257C97.7292 46.9471 95.6221 47.6213 93.0935 47.6213C87.615 47.6213 84.2857 45.2614 83.19 40.6678L115.514 40.7942ZM102.786 31.8599H82.7685C83.6535 27.7721 87.4042 25.0749 92.6721 25.0749C97.6871 25.1171 101.311 27.4771 102.786 31.8599Z" fill="#494545"/>
<path d="M4.63571 24.5271V57.82H17.0257V24.5271H22.0829V14.9607H16.9836V13.9071C16.9836 9.98786 17.8686 8.72358 21.7036 8.72358H22.0407V0.0842844C21.3243 0.0842844 20.65 0 20.06 0C9.48214 0.0421429 4.55143 4.21429 4.55143 13.3593C4.55143 13.8229 4.63571 14.4129 4.63571 14.9607H0V24.5271H4.63571Z" fill="#494545"/>
<path d="M120.276 24.5272V57.8201H132.666V24.5272H137.723V14.9608H132.666V13.9072C132.666 9.98795 133.551 8.72367 137.386 8.72367H137.723V0.126521C137.006 0.126521 136.332 0.0422363 135.742 0.0422363C125.164 0.0422363 120.234 4.21438 120.234 13.3594C120.234 13.823 120.318 14.4129 120.318 14.9608H115.682V24.5272H120.276Z" fill="#494545"/>
<path d="M182.858 36.1165C182.858 30.3008 180.414 24.3587 175.82 20.1022C171.521 16.0144 166.169 13.9072 159.932 13.9072C154.116 13.9072 148.427 16.2672 144.129 20.6079C139.872 24.8644 137.596 30.3429 137.596 36.3272C137.596 42.3115 139.746 47.8322 143.876 52.1308C148.259 56.7665 153.526 59.0001 160.059 59.0001C166.506 59.0001 171.943 56.6822 176.326 52.2994C180.709 47.9165 182.858 42.5644 182.858 36.1165ZM170.341 36.4537C170.341 42.2694 165.79 46.9894 160.227 46.9894C154.749 46.9894 150.113 42.2694 150.113 36.4537C150.113 30.5537 154.664 25.8336 160.227 25.8336C165.79 25.8336 170.341 30.5115 170.341 36.4537Z" fill="#494545"/>
<path d="M202.244 29.1207C196.175 28.7414 191.329 23.8949 190.949 17.7842H214.971H217.499V17.4892C217.499 7.07994 210.841 0.0842285 201.654 0.0842285C191.919 0.0842285 185.302 7.20638 185.302 16.4778C185.302 25.2435 192.129 32.9557 201.443 32.9557C208.228 32.9557 213.58 29.2049 216.488 22.2092H213.833C211.894 26.2971 207.764 29.1207 203.002 29.1207C202.665 29.1628 202.454 29.1628 202.244 29.1207Z" fill="#FFDD00"/>
<path d="M235.916 29.1207C241.984 28.7414 246.831 23.8949 247.21 17.7842H223.189H220.66V17.4892C220.66 7.07994 227.319 0.0842285 236.506 0.0842285C246.241 0.0842285 252.857 7.20638 252.857 16.4778C252.857 25.2435 246.03 32.9557 236.717 32.9557C229.932 32.9557 224.579 29.2049 221.672 22.2092H224.369C226.307 26.2971 230.437 29.1207 235.199 29.1207C235.41 29.1628 235.663 29.1628 235.916 29.1207Z" fill="#FFDD00"/>
</svg>
