<svg width="53" height="61" viewBox="0 0 53 61" fill="none" xmlns="http://www.w3.org/2000/svg">
<path d="M37.8571 41.9375H37.3011C35.8625 41.9375 34.4618 42.283 33.1013 42.7477C28.8187 44.2107 24.1765 44.2107 19.8939 42.7477C18.5358 42.283 17.1386 41.9399 15.7036 41.9399H15.1429C11.1271 41.9399 7.27585 43.5462 4.43608 46.4057C1.59631 49.2651 0.000627457 53.1434 0 57.1875C0 58.1986 0.398851 59.1684 1.10881 59.8833C1.81877 60.5983 2.78168 61 3.78571 61H49.2143C50.2183 61 51.1812 60.5983 51.8912 59.8833C52.6011 59.1684 53 58.1986 53 57.1875C53 53.1429 51.4046 49.2641 48.5648 46.4041C45.7249 43.5442 41.8733 41.9375 37.8571 41.9375V41.9375ZM3.78571 57.1875C3.78885 54.1551 4.9864 51.2477 7.1156 49.1034C9.2448 46.9592 12.1317 45.7532 15.1429 45.75H15.7036C16.5223 45.75 17.4687 45.943 18.6801 46.3564C23.75 48.0879 29.2453 48.0879 34.3151 46.3564C35.5348 45.9406 36.4836 45.7476 37.3011 45.7476H37.8571C40.8683 45.7508 43.7552 46.9568 45.8844 49.1011C48.0136 51.2453 49.2112 54.1527 49.2143 57.1851L3.78571 57.1875ZM5.67857 26.6875C6.18059 26.6875 6.66204 26.4867 7.01702 26.1292C7.372 25.7717 7.57143 25.2868 7.57143 24.7812V22.875C7.57143 12.3644 16.0633 3.8125 26.5 3.8125C36.9367 3.8125 45.4286 12.3644 45.4286 22.875V24.7812C45.4258 27.3082 44.4277 29.7309 42.6534 31.5177C40.8791 33.3046 38.4735 34.3097 35.9643 34.3125H32.1786C32.1786 33.3014 31.7797 32.3316 31.0698 31.6167C30.3598 30.9017 29.3969 30.5 28.3929 30.5H24.6071C23.6031 30.5 22.6402 30.9017 21.9302 31.6167C21.2203 32.3316 20.8214 33.3014 20.8214 34.3125C20.8214 35.3236 21.2203 36.2934 21.9302 37.0083C22.6402 37.7233 23.6031 38.125 24.6071 38.125H35.9643C39.4771 38.1206 42.8447 36.7133 45.3286 34.2118C47.8125 31.7103 49.2099 28.3189 49.2143 24.7812V22.875C49.2143 10.2604 39.026 0 26.5 0C13.974 0 3.78571 10.2604 3.78571 22.875V24.7812C3.78571 25.2868 3.98514 25.7717 4.34012 26.1292C4.6951 26.4867 5.17655 26.6875 5.67857 26.6875ZM26.5 11.4375C28.6933 11.4276 30.8422 12.0605 32.6846 13.2589C34.5271 14.4573 35.9837 16.1696 36.8768 18.187C37.77 20.2044 38.0612 22.4399 37.715 24.6211C37.3687 26.8023 36.4 28.835 34.9268 30.4714C34.9268 30.4821 34.9421 30.4893 34.9481 30.5H35.9643C36.9248 30.4979 37.869 30.2499 38.7081 29.7793C39.5473 29.3087 40.2539 28.631 40.7615 27.8098C41.2879 26.2538 41.6429 24.6121 41.6429 22.875C41.6429 18.8304 40.0475 14.9516 37.2076 12.0916C34.3678 9.23169 30.5161 7.625 26.5 7.625C22.4839 7.625 18.6322 9.23169 15.7924 12.0916C12.9525 14.9516 11.3571 18.8304 11.3571 22.875C11.3571 27.6907 13.6167 31.9297 17.0771 34.7259C17.07 34.5865 17.0357 34.4543 17.0357 34.3125C17.0442 32.9696 17.409 31.6533 18.0922 30.5C16.6114 28.8655 15.6355 26.8321 15.2837 24.6481C14.932 22.4641 15.2196 20.2242 16.1114 18.2022C17.0033 16.1801 18.4607 14.4636 20.3057 13.2622C22.1506 12.0609 24.303 11.4268 26.5 11.4375V11.4375Z" fill="#003865"/>
</svg>
