<svg width="55" height="62" viewBox="0 0 55 62" fill="none" xmlns="http://www.w3.org/2000/svg">
<path d="M3.15673 60.0681V58.7413H51.8336C52.0529 58.7413 52.2633 58.6546 52.4187 58.5C52.5742 58.3454 52.6622 58.1356 52.6635 57.9163V18.9082H2.32688V57.9066C2.32815 58.1259 2.41614 58.3357 2.57163 58.4903C2.72713 58.6449 2.93747 58.7317 3.15673 58.7317V60.0585C2.58725 60.0585 2.04088 59.8333 1.63684 59.4319C1.2328 59.0306 1.00389 58.4858 1.00007 57.9163V18.252C0.998792 18.1628 1.01519 18.0743 1.04831 17.9915C1.08144 17.9087 1.13063 17.8332 1.19306 17.7695C1.25644 17.7067 1.33181 17.6572 1.41469 17.624C1.49758 17.5909 1.58628 17.5747 1.67553 17.5766H53.3245C53.4137 17.5747 53.5024 17.5909 53.5853 17.624C53.6682 17.6572 53.7436 17.7067 53.807 17.7695C53.9326 17.8985 54.002 18.072 54 18.252V57.9163C53.9987 58.4874 53.7709 59.0348 53.3666 59.4382C52.9623 59.8416 52.4144 60.0681 51.8433 60.0681H3.15673Z" fill="#003865" stroke="#003865" stroke-width="1.9299"/>
<path d="M10.5337 11.6228C10.5337 10.9405 10.736 10.2735 11.1151 9.70625C11.4941 9.13895 12.0329 8.69679 12.6632 8.43569C13.2936 8.17459 13.9872 8.10627 14.6564 8.23938C15.3256 8.37249 15.9402 8.70104 16.4227 9.18349C16.9051 9.66594 17.2337 10.2806 17.3668 10.9498C17.4999 11.619 17.4316 12.3126 17.1705 12.9429C16.9094 13.5733 16.4672 14.1121 15.8999 14.4911C15.3326 14.8702 14.6657 15.0725 13.9834 15.0725C13.0685 15.0725 12.191 14.709 11.5441 14.0621C10.8971 13.4152 10.5337 12.5377 10.5337 11.6228V11.6228ZM11.8605 11.6228C11.8605 12.0427 11.985 12.4531 12.2183 12.8022C12.4515 13.1513 12.7831 13.4234 13.171 13.5841C13.5589 13.7448 13.9857 13.7868 14.3975 13.7049C14.8093 13.623 15.1876 13.4208 15.4845 13.1239C15.7814 12.827 15.9836 12.4487 16.0655 12.0369C16.1474 11.6251 16.1054 11.1983 15.9447 10.8104C15.784 10.4225 15.5119 10.0909 15.1628 9.85767C14.8137 9.62441 14.4033 9.4999 13.9834 9.4999C13.7044 9.49927 13.4281 9.55374 13.1702 9.6602C12.9124 9.76666 12.6781 9.92301 12.4809 10.1203C12.2836 10.3175 12.1273 10.5518 12.0208 10.8096C11.9143 11.0675 11.8599 11.3438 11.8605 11.6228V11.6228Z" fill="#003865" stroke="#003865" stroke-width="1.9299"/>
<path d="M1.66606 18.9083C1.49113 18.9083 1.32323 18.8395 1.19864 18.7167C1.07405 18.5939 1.00278 18.427 1.00024 18.2521V6.47972C1.00152 5.90857 1.22931 5.36126 1.63362 4.95785C2.03793 4.55444 2.58576 4.32788 3.15691 4.32788H10.534C10.7001 4.34207 10.8549 4.4181 10.9677 4.54095C11.0805 4.66379 11.1431 4.8245 11.1431 4.99128C11.1431 5.15807 11.0805 5.31878 10.9677 5.44162C10.8549 5.56447 10.7001 5.6405 10.534 5.65469H3.15691C2.93765 5.65468 2.7273 5.74145 2.57181 5.89604C2.41632 6.05062 2.32833 6.26046 2.32705 6.47972V17.5766H52.6637V6.47972C52.6624 6.26046 52.5744 6.05062 52.4189 5.89604C52.2634 5.74145 52.0531 5.65468 51.8338 5.65469H44.4568C44.2906 5.6405 44.1358 5.56447 44.023 5.44162C43.9102 5.31878 43.8476 5.15807 43.8476 4.99128C43.8476 4.8245 43.9102 4.66379 44.023 4.54095C44.1358 4.4181 44.2906 4.34207 44.4568 4.32788H51.8338C52.405 4.32788 52.9528 4.55444 53.3571 4.95785C53.7614 5.36126 53.9892 5.90857 53.9905 6.47972V18.2521C53.9931 18.3415 53.9774 18.4304 53.9442 18.5134C53.911 18.5964 53.861 18.6717 53.7975 18.7346C53.7344 18.7981 53.6591 18.8483 53.5763 18.8823C53.4934 18.9163 53.4046 18.9333 53.315 18.9324L1.66606 18.9083Z" fill="#003865" stroke="#003865" stroke-width="1.9299"/>
<path d="M17.4283 5.65466C17.2621 5.64047 17.1073 5.56444 16.9945 5.44159C16.8817 5.31875 16.8191 5.15804 16.8191 4.99125C16.8191 4.82447 16.8817 4.66376 16.9945 4.54092C17.1073 4.41807 17.2621 4.34204 17.4283 4.32785H37.562C37.6538 4.32001 37.7463 4.33134 37.8336 4.36111C37.9209 4.39089 38.001 4.43847 38.0689 4.50084C38.1368 4.56321 38.1911 4.639 38.2282 4.72342C38.2653 4.80784 38.2844 4.89905 38.2844 4.99125C38.2844 5.08346 38.2653 5.17467 38.2282 5.25909C38.1911 5.34351 38.1368 5.4193 38.0689 5.48167C38.001 5.54404 37.9209 5.59162 37.8336 5.6214C37.7463 5.65117 37.6538 5.6625 37.562 5.65466H17.4283Z" fill="#003865" stroke="#003865" stroke-width="1.9299"/>
<path d="M13.3176 8.83409V1.71759C13.3318 1.55141 13.4078 1.39661 13.5307 1.2838C13.6535 1.17099 13.8142 1.1084 13.981 1.1084C14.1478 1.1084 14.3085 1.17099 14.4313 1.2838C14.5542 1.39661 14.6302 1.55141 14.6444 1.71759V8.83409C14.6522 8.92597 14.6409 9.01847 14.6111 9.10574C14.5814 9.19301 14.5338 9.27314 14.4714 9.34106C14.409 9.40898 14.3333 9.4632 14.2488 9.50029C14.1644 9.53738 14.0732 9.55654 13.981 9.55654C13.8888 9.55654 13.7976 9.53738 13.7132 9.50029C13.6287 9.4632 13.553 9.40898 13.4906 9.34106C13.4282 9.27314 13.3806 9.19301 13.3509 9.10574C13.3211 9.01847 13.3098 8.92597 13.3176 8.83409V8.83409Z" fill="#003865" stroke="#003865" stroke-width="1.9299"/>
<path d="M37.562 11.6228C37.562 10.9405 37.7643 10.2735 38.1434 9.70625C38.5224 9.13895 39.0612 8.69679 39.6916 8.43569C40.3219 8.17459 41.0155 8.10627 41.6847 8.23938C42.3539 8.37249 42.9686 8.70104 43.451 9.18349C43.9335 9.66594 44.262 10.2806 44.3951 10.9498C44.5282 11.619 44.4599 12.3126 44.1988 12.9429C43.9377 13.5733 43.4956 14.1121 42.9283 14.4911C42.361 14.8702 41.694 15.0725 41.0117 15.0725C40.0968 15.0725 39.2193 14.709 38.5724 14.0621C37.9255 13.4152 37.562 12.5377 37.562 11.6228V11.6228ZM38.8888 11.6228C38.8888 12.0427 39.0133 12.4531 39.2466 12.8022C39.4799 13.1513 39.8114 13.4234 40.1993 13.5841C40.5872 13.7448 41.0141 13.7868 41.4259 13.7049C41.8377 13.623 42.2159 13.4208 42.5128 13.1239C42.8097 12.827 43.0119 12.4487 43.0938 12.0369C43.1757 11.6251 43.1337 11.1983 42.973 10.8104C42.8123 10.4225 42.5402 10.0909 42.1911 9.85767C41.842 9.62441 41.4316 9.4999 41.0117 9.4999C40.4491 9.50118 39.9098 9.72525 39.512 10.1231C39.1142 10.5209 38.8901 11.0602 38.8888 11.6228Z" fill="#003865" stroke="#003865" stroke-width="1.9299"/>
<path d="M40.3457 8.83413V1.72244C40.3378 1.63057 40.3492 1.53806 40.3789 1.4508C40.4087 1.36353 40.4563 1.2834 40.5187 1.21548C40.581 1.14756 40.6568 1.09334 40.7412 1.05625C40.8257 1.01915 40.9169 1 41.0091 1C41.1013 1 41.1925 1.01915 41.2769 1.05625C41.3613 1.09334 41.4371 1.14756 41.4995 1.21548C41.5619 1.2834 41.6094 1.36353 41.6392 1.4508C41.669 1.53806 41.6803 1.63057 41.6725 1.72244V8.83413C41.6803 8.926 41.669 9.0185 41.6392 9.10577C41.6094 9.19304 41.5619 9.27317 41.4995 9.34109C41.4371 9.40901 41.3613 9.46323 41.2769 9.50032C41.1925 9.53741 41.1013 9.55657 41.0091 9.55657C40.9169 9.55657 40.8257 9.53741 40.7412 9.50032C40.6568 9.46323 40.581 9.40901 40.5187 9.34109C40.4563 9.27317 40.4087 9.19304 40.3789 9.10577C40.3492 9.0185 40.3378 8.926 40.3457 8.83413V8.83413Z" fill="#003865" stroke="#003865" stroke-width="1.9299"/>
<path d="M11.378 25.5505V28.2282H16.0676V30.1098H11.378V33.8008H9.03315V23.6688H16.69V25.5505H11.378ZM24.733 33.8008L22.7789 30.9783H22.6631H20.6223V33.8008H18.2774V23.6688H22.6631C23.5605 23.6688 24.3373 23.8184 24.9935 24.1175C25.6593 24.4166 26.1707 24.8412 26.5278 25.3912C26.8848 25.9413 27.0633 26.5926 27.0633 27.3453C27.0633 28.0979 26.88 28.7493 26.5133 29.2993C26.1563 29.8397 25.6448 30.2546 24.979 30.5441L27.2515 33.8008H24.733ZM24.6895 27.3453C24.6895 26.7759 24.5062 26.3417 24.1395 26.0426C23.7728 25.7338 23.2373 25.5794 22.5329 25.5794H20.6223V29.1111H22.5329C23.2373 29.1111 23.7728 28.9567 24.1395 28.6479C24.5062 28.3392 24.6895 27.9049 24.6895 27.3453ZM36.7662 31.9191V33.8008H28.9211V23.6688H36.578V25.5505H31.2515V27.7505H35.9556V29.5743H31.2515V31.9191H36.7662ZM46.4769 31.9191V33.8008H38.6319V23.6688H46.2887V25.5505H40.9622V27.7505H45.6663V29.5743H40.9622V31.9191H46.4769Z" fill="#003865"/>
<path d="M34.561 39.6016L20.989 53.1736" stroke="#003865" stroke-width="3.8598" stroke-linecap="round" stroke-linejoin="round"/>
<path d="M20.989 39.6016L34.561 53.1736" stroke="#003865" stroke-width="3.8598" stroke-linecap="round" stroke-linejoin="round"/>
</svg>
