<?xml version="1.0" encoding="utf-8"?>
<!-- Generator: Adobe Illustrator 26.0.1, SVG Export Plug-In . SVG Version: 6.00 Build 0)  -->
<svg version="1.1" xmlns="http://www.w3.org/2000/svg" xmlns:xlink="http://www.w3.org/1999/xlink" x="0px" y="0px"
	 viewBox="0 0 55 62" style="enable-background:new 0 0 55 62;" xml:space="preserve">
<style type="text/css">
	.st0{display:none;}
	.st1{display:inline;fill:#003865;stroke:#003865;stroke-width:1.9299;}
	.st2{display:inline;fill:#003865;}
	.st3{display:inline;fill:none;stroke:#003865;stroke-width:3.8598;stroke-linecap:round;stroke-linejoin:round;}
	.st4{font-family:'Montserrat-SemiBold';}
	.st5{font-size:26.1584px;}
	.st6{display:inline;}
	.st7{fill:none;stroke:#003865;stroke-width:1.75;stroke-miterlimit:10;}
	.st8{display:none;fill:none;stroke:#003865;stroke-width:1.75;stroke-miterlimit:10;}
	.st9{display:inline;fill:none;stroke:#003865;stroke-width:2;stroke-miterlimit:10;}
	.st10{display:inline;fill:none;stroke:#003865;stroke-width:1.75;stroke-miterlimit:10;}
	.st11{fill:#003865;stroke:#003865;stroke-miterlimit:10;}
	.st12{fill:#003865;stroke:#003865;stroke-width:0.5;stroke-miterlimit:10;}
	.st13{enable-background:new    ;}
	.st14{fill:#003865;}
</style>
<g id="Layer_1" class="st0">
	<path class="st1" d="M3.16,60.07v-1.33h48.68c0.22,0,0.43-0.09,0.59-0.24c0.16-0.15,0.24-0.36,0.24-0.58V18.91H2.33v39
		c0,0.22,0.09,0.43,0.24,0.58c0.16,0.15,0.37,0.24,0.59,0.24V60.07c-0.57-0.01-1.12-0.23-1.52-0.64C1.23,59.03,1,58.49,1,57.92
		V18.25c0-0.09,0.02-0.18,0.05-0.26c0.03-0.08,0.08-0.16,0.14-0.22c0.06-0.06,0.14-0.11,0.22-0.15c0.08-0.03,0.17-0.05,0.26-0.05
		h51.65c0.09,0,0.18,0.01,0.26,0.05c0.08,0.03,0.16,0.08,0.22,0.15c0.13,0.13,0.19,0.3,0.19,0.48v39.66c0,0.57-0.23,1.12-0.63,1.52
		c-0.4,0.4-0.95,0.63-1.52,0.63H3.16z"/>
	<path class="st1" d="M10.53,11.62c0-0.68,0.2-1.35,0.58-1.92c0.38-0.57,0.92-1.01,1.55-1.27c0.63-0.26,1.32-0.33,1.99-0.2
		s1.28,0.46,1.77,0.94c0.48,0.48,0.81,1.1,0.94,1.77c0.13,0.67,0.06,1.36-0.2,1.99c-0.26,0.63-0.7,1.17-1.27,1.55
		c-0.57,0.38-1.23,0.58-1.92,0.58c-0.91,0-1.79-0.36-2.44-1.01C10.9,13.42,10.53,12.54,10.53,11.62L10.53,11.62z M11.86,11.62
		c0,0.42,0.12,0.83,0.36,1.18c0.23,0.35,0.56,0.62,0.95,0.78c0.39,0.16,0.81,0.2,1.23,0.12c0.41-0.08,0.79-0.28,1.09-0.58
		c0.3-0.3,0.5-0.68,0.58-1.09c0.08-0.41,0.04-0.84-0.12-1.23s-0.43-0.72-0.78-0.95C14.81,9.62,14.4,9.5,13.98,9.5
		c-0.28,0-0.56,0.05-0.81,0.16c-0.26,0.11-0.49,0.26-0.69,0.46c-0.2,0.2-0.35,0.43-0.46,0.69C11.91,11.07,11.86,11.34,11.86,11.62
		L11.86,11.62z"/>
	<path class="st1" d="M1.67,18.49c-0.17,0-0.34-0.07-0.47-0.19C1.07,18.18,1,18.02,1,17.85V6.42c0-0.55,0.23-1.09,0.63-1.48
		s0.95-0.61,1.52-0.61h7.37c0.17,0.01,0.32,0.09,0.43,0.21c0.11,0.12,0.18,0.28,0.18,0.44c0,0.16-0.06,0.32-0.18,0.44
		c-0.11,0.12-0.27,0.19-0.43,0.21H3.16c-0.22,0-0.43,0.08-0.58,0.23C2.42,6,2.33,6.21,2.33,6.42V17.2h50.29V6.42
		c0-0.21-0.09-0.42-0.24-0.57c-0.16-0.15-0.37-0.23-0.58-0.23h-7.37c-0.17-0.01-0.32-0.09-0.43-0.21c-0.11-0.12-0.18-0.28-0.18-0.44
		c0-0.16,0.06-0.32,0.18-0.44c0.11-0.12,0.27-0.19,0.43-0.21h7.37c0.57,0,1.12,0.22,1.52,0.61s0.63,0.92,0.63,1.48v11.43
		c0,0.09-0.01,0.17-0.05,0.25c-0.03,0.08-0.08,0.15-0.15,0.21c-0.06,0.06-0.14,0.11-0.22,0.14c-0.08,0.03-0.17,0.05-0.26,0.05
		L1.67,18.49z"/>
	<path class="st1" d="M17.43,5.65c-0.17-0.01-0.32-0.09-0.43-0.21c-0.11-0.12-0.18-0.28-0.18-0.45c0-0.17,0.06-0.33,0.18-0.45
		c0.11-0.12,0.27-0.2,0.43-0.21h20.13c0.09-0.01,0.18,0,0.27,0.03C37.92,4.39,38,4.44,38.07,4.5c0.07,0.06,0.12,0.14,0.16,0.22
		c0.04,0.08,0.06,0.18,0.06,0.27c0,0.09-0.02,0.18-0.06,0.27c-0.04,0.08-0.09,0.16-0.16,0.22C38,5.54,37.92,5.59,37.83,5.62
		c-0.09,0.03-0.18,0.04-0.27,0.03H17.43z"/>
	<path class="st1" d="M13.32,8.83V1.72c0.01-0.17,0.09-0.32,0.21-0.43c0.12-0.11,0.28-0.18,0.45-0.18c0.17,0,0.33,0.06,0.45,0.18
		c0.12,0.11,0.2,0.27,0.21,0.43v7.12c0.01,0.09,0,0.18-0.03,0.27c-0.03,0.09-0.08,0.17-0.14,0.24c-0.06,0.07-0.14,0.12-0.22,0.16
		c-0.08,0.04-0.18,0.06-0.27,0.06S13.8,9.54,13.71,9.5c-0.08-0.04-0.16-0.09-0.22-0.16c-0.06-0.07-0.11-0.15-0.14-0.24
		C13.32,9.02,13.31,8.93,13.32,8.83L13.32,8.83z"/>
	<path class="st1" d="M37.56,11.62c0-0.68,0.2-1.35,0.58-1.92c0.38-0.57,0.92-1.01,1.55-1.27c0.63-0.26,1.32-0.33,1.99-0.2
		s1.28,0.46,1.77,0.94c0.48,0.48,0.81,1.1,0.94,1.77c0.13,0.67,0.06,1.36-0.2,1.99c-0.26,0.63-0.7,1.17-1.27,1.55
		c-0.57,0.38-1.23,0.58-1.92,0.58c-0.91,0-1.79-0.36-2.44-1.01C37.93,13.42,37.56,12.54,37.56,11.62L37.56,11.62z M38.89,11.62
		c0,0.42,0.12,0.83,0.36,1.18s0.56,0.62,0.95,0.78c0.39,0.16,0.81,0.2,1.23,0.12c0.41-0.08,0.79-0.28,1.09-0.58
		c0.3-0.3,0.5-0.68,0.58-1.09c0.08-0.41,0.04-0.84-0.12-1.23c-0.16-0.39-0.43-0.72-0.78-0.95c-0.35-0.23-0.76-0.36-1.18-0.36
		c-0.56,0-1.1,0.23-1.5,0.62C39.11,10.52,38.89,11.06,38.89,11.62z"/>
	<path class="st1" d="M40.35,8.83V1.72c-0.01-0.09,0-0.18,0.03-0.27c0.03-0.09,0.08-0.17,0.14-0.24c0.06-0.07,0.14-0.12,0.22-0.16
		C40.83,1.02,40.92,1,41.01,1c0.09,0,0.18,0.02,0.27,0.06c0.08,0.04,0.16,0.09,0.22,0.16c0.06,0.07,0.11,0.15,0.14,0.24
		c0.03,0.09,0.04,0.18,0.03,0.27v7.11c0.01,0.09,0,0.18-0.03,0.27c-0.03,0.09-0.08,0.17-0.14,0.24s-0.14,0.12-0.22,0.16
		c-0.08,0.04-0.18,0.06-0.27,0.06c-0.09,0-0.18-0.02-0.27-0.06c-0.08-0.04-0.16-0.09-0.22-0.16c-0.06-0.07-0.11-0.15-0.14-0.24
		C40.35,9.02,40.34,8.93,40.35,8.83L40.35,8.83z"/>
	<path class="st2" d="M11.38,25.55v2.68h4.69v1.88h-4.69v3.69H9.03V23.67h7.66v1.88H11.38z M24.73,33.8l-1.95-2.82h-0.12h-2.04v2.82
		h-2.34V23.67h4.39c0.9,0,1.67,0.15,2.33,0.45c0.67,0.3,1.18,0.72,1.53,1.27c0.36,0.55,0.54,1.2,0.54,1.95
		c0,0.75-0.18,1.4-0.55,1.95c-0.36,0.54-0.87,0.96-1.53,1.24l2.27,3.26H24.73z M24.69,27.35c0-0.57-0.18-1-0.55-1.3
		c-0.37-0.31-0.9-0.46-1.61-0.46h-1.91v3.53h1.91c0.7,0,1.24-0.15,1.61-0.46C24.51,28.34,24.69,27.9,24.69,27.35z M36.77,31.92v1.88
		h-7.85V23.67h7.66v1.88h-5.33v2.2h4.7v1.82h-4.7v2.34H36.77z M46.48,31.92v1.88h-7.84V23.67h7.66v1.88h-5.33v2.2h4.7v1.82h-4.7
		v2.34H46.48z"/>
	<path class="st3" d="M34.56,39.6L20.99,53.17"/>
	<path class="st3" d="M20.99,39.6l13.57,13.57"/>
</g>
<g id="Layer_2">
	<g id="Layer_1_00000049918948226612577260000012541848689732894388_">
	</g>
	<g id="Layer_2_00000143582423229094405850000017815769540649378466_" class="st0">
		<text transform="matrix(1 0 0 1 20.5078 31.0322)" class="st2 st4 st5">£</text>
		<g class="st6">
			<path class="st7" d="M44.46,22.03c4.31-2.95,2.11-9.68-3.1-9.55c1.75-4.91-3.98-9.07-8.11-5.89l0,0c-1.48-5-8.56-5-10.03,0l0,0
				c-4.13-3.18-9.86,0.99-8.11,5.89c-5.21-0.15-7.41,6.59-3.1,9.55c-4.31,2.95-2.11,9.68,3.1,9.55c-1.75,4.91,3.98,9.07,8.11,5.89
				l0,0c1.48,5,8.56,5,10.03,0l0,0c4.13,3.18,9.86-0.99,8.11-5.89C46.57,31.71,48.75,24.97,44.46,22.03z"/>
			<path class="st7" d="M27.75,51.18c-1.54,2.75-3.48,5.51-5.75,7.2c-0.49-2.32-1.27-4.44-2.02-5.69c-2.53,1.03-4.79,1.77-8.42,1.58
				c8.91-8.6,11.17-16.19,11.17-16.19"/>
			<path class="st7" d="M29.81,44.81c0,0,3.06,10.55,8.27,14.72c0.5-2.09,1.29-3.99,1.99-5.09c2.26,1,4.29,1.75,7.58,1.67
				c-7.83-8.04-9.94-18.09-9.94-18.09"/>
			<circle class="st8" cx="28.22" cy="22.02" r="12.29"/>
		</g>
		<polygon class="st9" points="27.32,5.57 33.25,17.58 46.49,19.5 36.9,28.83 39.16,42.03 27.32,35.8 15.48,42.03 17.74,28.83 
			8.16,19.5 21.4,17.58 		"/>
		<circle class="st10" cx="27.32" cy="23.17" r="21.66"/>
	</g>
	<g id="Layer_3">
		<path class="st11" d="M52.6,54.77l-8.02-19.38c-0.2-0.5-0.76-0.72-1.26-0.52c-0.5,0.2-0.72,0.76-0.52,1.26l7.26,17.51l-6.61-1.92
			c-0.43-0.12-0.9,0.07-1.11,0.46L39,58.21l-7.78-18.79c8.99-1.73,15.78-9.66,15.78-19.14c0-10.74-8.74-19.49-19.49-19.49
			S8.01,9.56,8.01,20.3c0,4.36,1.43,8.38,3.85,11.63L2.41,54.77c-0.15,0.35-0.08,0.74,0.17,1.02c0.24,0.28,0.63,0.39,0.99,0.28
			l7.81-2.27l3.92,7.12c0.17,0.31,0.5,0.5,0.84,0.5c0.01,0,0.04,0,0.05,0c0.38-0.03,0.7-0.25,0.84-0.59l7.5-18.1
			c0.2-0.5-0.03-1.06-0.52-1.26c-0.5-0.2-1.06,0.03-1.26,0.52l-6.73,16.24l-3.33-6.03c-0.21-0.4-0.68-0.59-1.11-0.46l-6.61,1.92
			l8.3-20.05c3.55,3.81,8.62,6.2,14.23,6.2c0.58,0,1.15-0.03,1.72-0.08l8.74,21.11c0.15,0.35,0.47,0.58,0.84,0.59
			c0.01,0,0.04,0,0.05,0c0.35,0,0.67-0.19,0.84-0.5l3.92-7.12l7.81,2.27c0.36,0.11,0.74-0.01,0.99-0.28
			C52.67,55.52,52.74,55.12,52.6,54.77z M9.96,20.3c0-9.68,7.87-17.55,17.55-17.55s17.54,7.89,17.54,17.55
			c0,9.68-7.87,17.55-17.55,17.55S9.96,29.99,9.96,20.3z"/>
		<path class="st12" d="M41.9,21.26c-0.51-0.07-1,0.3-1.07,0.82c-0.88,6.65-6.61,11.67-13.33,11.67c-7.42,0-13.44-6.03-13.44-13.44
			c0-7.42,6.03-13.44,13.44-13.44c6.72,0,12.45,5.02,13.33,11.67c0.07,0.53,0.55,0.88,1.07,0.82c0.51-0.07,0.88-0.54,0.82-1.07
			c-1-7.62-7.55-13.33-15.22-13.33c-8.46,0-15.34,6.88-15.34,15.34s6.88,15.35,15.35,15.35c7.67,0,14.2-5.73,15.22-13.32
			C42.78,21.82,42.42,21.33,41.9,21.26z"/>
		<g class="st13">
			<path class="st14" d="M33.39,25.62v3.24H20.39v-3.24h2.02v-4.15h-2.02v-2.85h2.02v-2.1c0-3.81,2.18-5.98,5.96-5.98
				c2.07,0,3.99,0.8,5.39,2.25l-1.55,3.11c-1.11-1.17-2.25-1.79-3.39-1.79c-1.48,0-2.28,0.83-2.28,2.49v2.02h4.4v2.85h-4.4v4.15
				H33.39z"/>
		</g>
	</g>
</g>
</svg>
