<?xml version="1.0" encoding="UTF-8" standalone="no"?><!DOCTYPE svg PUBLIC "-//W3C//DTD SVG 1.1//EN" "http://www.w3.org/Graphics/SVG/1.1/DTD/svg11.dtd"><svg width="100%" height="100%" viewBox="0 0 236 33" version="1.1" xmlns="http://www.w3.org/2000/svg" xmlns:xlink="http://www.w3.org/1999/xlink" xml:space="preserve" xmlns:serif="http://www.serif.com/" style="fill-rule:evenodd;clip-rule:evenodd;stroke-linejoin:round;stroke-miterlimit:2;"><path d="M31.209,15.216l-0,13.318l-9.085,-0l-0,-13.318l4.542,-3.318l4.543,3.318Zm4.333,-15.216l-8.876,6.482l-8.875,-6.482l-17.791,12.994l0,19.913l10.321,0l0,-4.373l-5.948,-0l0,-13.318l13.418,-9.801l5.168,3.775l-5.207,3.804l-0,19.913l17.829,0l0,-19.913l-5.207,-3.804l5.168,-3.775l13.419,9.801l-0,13.318l-6.443,-0l-0,4.373l10.815,0l0,-19.913l-17.791,-12.994Z" style="fill:#f95355;fill-rule:nonzero;"/><path d="M70.942,7.187l3.494,12.987l0.053,-0l4.213,-12.987l4.16,-0l3.947,12.987l0.053,-0l3.787,-12.987l5.44,-0l-6.427,20.107l-5.333,-0l-3.52,-11.654l-0.053,0l-3.947,11.654l-5.307,-0l-6,-20.107l5.44,-0Z" style="fill:#fff;fill-rule:nonzero;"/><path d="M110.276,20.76l-0,0.507l-10.214,-0c0,0.996 0.258,1.756 0.774,2.28c0.515,0.524 1.271,0.787 2.266,0.787c0.516,-0 0.965,-0.098 1.347,-0.294c0.382,-0.195 0.707,-0.515 0.973,-0.96l4.667,0c-0.391,1.627 -1.258,2.811 -2.6,3.553c-1.342,0.743 -2.796,1.114 -4.36,1.114c-2.258,-0 -4.142,-0.618 -5.653,-1.853c-1.512,-1.236 -2.267,-3.036 -2.267,-5.4c-0,-2.276 0.707,-4.063 2.12,-5.36c1.413,-1.298 3.231,-1.947 5.453,-1.947c2.382,-0 4.227,0.684 5.534,2.053c1.306,1.369 1.96,3.218 1.96,5.547l-0,-0.027Zm-10.134,-2.293l5.627,-0c-0.125,-0.64 -0.449,-1.156 -0.973,-1.547c-0.525,-0.391 -1.116,-0.586 -1.774,-0.586c-0.711,-0 -1.333,0.18 -1.866,0.54c-0.534,0.36 -0.872,0.891 -1.014,1.593Z" style="fill:#fff;fill-rule:nonzero;"/><path d="M126.542,20.76l0,0.507l-10.213,-0c-0,0.996 0.258,1.756 0.773,2.28c0.516,0.524 1.271,0.787 2.267,0.787c0.515,-0 0.964,-0.098 1.347,-0.294c0.382,-0.195 0.706,-0.515 0.973,-0.96l4.667,0c-0.392,1.627 -1.258,2.811 -2.6,3.553c-1.343,0.743 -2.796,1.114 -4.36,1.114c-2.258,-0 -4.143,-0.618 -5.654,-1.853c-1.511,-1.236 -2.266,-3.036 -2.266,-5.4c-0,-2.276 0.706,-4.063 2.12,-5.36c1.413,-1.298 3.231,-1.947 5.453,-1.947c2.382,-0 4.227,0.684 5.533,2.053c1.307,1.369 1.96,3.218 1.96,5.547l0,-0.027Zm-10.133,-2.293l5.627,-0c-0.125,-0.64 -0.449,-1.156 -0.974,-1.547c-0.524,-0.391 -1.115,-0.586 -1.773,-0.586c-0.711,-0 -1.333,0.18 -1.867,0.54c-0.533,0.36 -0.871,0.891 -1.013,1.593Z" style="fill:#fff;fill-rule:nonzero;"/><path d="M133.609,5.16l-0,13.387l5.04,-4.933l6.64,-0l-6.853,6.32l7.28,7.36l-6.8,-0l-5.307,-5.574l-0,5.574l-4.853,-0l-0,-22.134l4.853,0Z" style="fill:#fff;fill-rule:nonzero;"/><path d="M161.156,20.76l-0,0.507l-10.214,-0c0,0.996 0.258,1.756 0.774,2.28c0.515,0.524 1.271,0.787 2.266,0.787c0.516,-0 0.965,-0.098 1.347,-0.294c0.382,-0.195 0.707,-0.515 0.973,-0.96l4.667,0c-0.391,1.627 -1.258,2.811 -2.6,3.553c-1.342,0.743 -2.796,1.114 -4.36,1.114c-2.258,-0 -4.142,-0.618 -5.653,-1.853c-1.512,-1.236 -2.267,-3.036 -2.267,-5.4c-0,-2.276 0.707,-4.063 2.12,-5.36c1.413,-1.298 3.231,-1.947 5.453,-1.947c2.382,-0 4.227,0.684 5.534,2.053c1.306,1.369 1.96,3.218 1.96,5.547l-0,-0.027Zm-10.134,-2.293l5.627,-0c-0.125,-0.64 -0.449,-1.156 -0.973,-1.547c-0.525,-0.391 -1.116,-0.586 -1.774,-0.586c-0.711,-0 -1.333,0.18 -1.866,0.54c-0.534,0.36 -0.872,0.891 -1.014,1.593Z" style="fill:#fff;fill-rule:nonzero;"/><path d="M168.222,13.614l0,1.76l0.054,-0c0.568,-0.818 1.204,-1.387 1.906,-1.707c0.702,-0.32 1.525,-0.48 2.467,-0.48c1.849,-0 3.169,0.524 3.96,1.573c0.791,1.049 1.187,2.418 1.187,4.107l-0,8.427l-4.854,-0l0,-7.467c0,-0.178 -0.009,-0.356 -0.026,-0.533c-0.036,-0.551 -0.196,-1.063 -0.48,-1.534c-0.285,-0.471 -0.845,-0.706 -1.68,-0.706c-0.978,-0 -1.645,0.315 -2,0.946c-0.356,0.631 -0.534,1.374 -0.534,2.227l0,7.067l-4.853,-0l-0,-13.68l4.853,-0Z" style="fill:#fff;fill-rule:nonzero;"/><path d="M191.289,27.294l-0,-1.52l-0.053,-0c-0.392,0.64 -0.925,1.115 -1.6,1.426c-0.676,0.311 -1.378,0.485 -2.107,0.52c-0.071,0.018 -0.142,0.027 -0.213,0.027c-0.072,-0 -0.143,-0 -0.214,-0c-2.026,-0 -3.684,-0.724 -4.973,-2.173c-1.289,-1.449 -1.933,-3.151 -1.933,-5.107c-0,-1.956 0.635,-3.658 1.906,-5.107c1.271,-1.449 2.92,-2.173 4.947,-2.173l0.267,-0c0.088,-0 0.177,0.009 0.266,0.027c0.694,0.053 1.374,0.226 2.04,0.52c0.667,0.293 1.222,0.706 1.667,1.24l-0,-9.814l4.853,0l0,22.134l-4.853,-0Zm-2.96,-9.92c-0.978,0.017 -1.742,0.333 -2.293,0.946c-0.552,0.614 -0.827,1.338 -0.827,2.174c-0,0.871 0.275,1.6 0.827,2.186c0.551,0.587 1.315,0.88 2.293,0.88c0.995,0 1.764,-0.294 2.307,-0.883c0.542,-0.59 0.813,-1.322 0.813,-2.197c-0,-0.839 -0.271,-1.566 -0.813,-2.182c-0.543,-0.616 -1.312,-0.924 -2.307,-0.924Z" style="fill:#fff;fill-rule:nonzero;"/><path d="M204.036,13.614l-0,13.68l-4.854,-0l0,-13.68l4.854,-0Zm-2.427,-7.974c0.747,0.018 1.387,0.294 1.92,0.827c0.533,0.533 0.8,1.173 0.8,1.92c-0,0.747 -0.267,1.387 -0.8,1.92c-0.533,0.533 -1.173,0.8 -1.92,0.8c-0.747,-0 -1.387,-0.267 -1.92,-0.8c-0.533,-0.533 -0.8,-1.173 -0.8,-1.92c-0,-0.754 0.267,-1.4 0.8,-1.939c0.533,-0.538 1.173,-0.808 1.92,-0.808Z" style="fill:#fff;fill-rule:nonzero;"/><path d="M217.102,13.96l0,4.107c-0.355,-0.249 -0.746,-0.467 -1.173,-0.653c-0.427,-0.187 -0.871,-0.28 -1.333,-0.28c-0.925,-0 -1.712,0.32 -2.36,0.96c-0.649,0.64 -0.974,1.431 -0.974,2.373c0,0.978 0.32,1.782 0.96,2.413c0.64,0.631 1.458,0.947 2.454,0.947c0.088,-0 0.182,-0.004 0.28,-0.013c0.097,-0.009 0.191,-0.023 0.28,-0.04c0.337,-0.054 0.671,-0.156 1,-0.307c0.328,-0.151 0.617,-0.342 0.866,-0.573l0,4.08c-0.533,0.266 -1.089,0.462 -1.666,0.586c-0.578,0.125 -1.16,0.187 -1.747,0.187c-2.027,-0 -3.773,-0.671 -5.24,-2.013c-1.467,-1.343 -2.2,-3.045 -2.2,-5.107c-0,-2.204 0.738,-3.996 2.213,-5.373c1.476,-1.378 3.289,-2.067 5.44,-2.067c0.569,-0 1.125,0.067 1.667,0.2c0.542,0.133 1.053,0.333 1.533,0.6l0,-0.027Z" style="fill:#fff;fill-rule:nonzero;"/><path d="M235.076,13.614l-0,13.68l-4.854,-0l0,-1.52l-0.053,-0c-0.391,0.64 -0.925,1.115 -1.6,1.426c-0.676,0.311 -1.378,0.485 -2.107,0.52c-0.071,0.018 -0.142,0.027 -0.213,0.027c-0.071,-0 -0.142,-0 -0.213,-0c-2.027,-0 -3.685,-0.724 -4.974,-2.173c-1.289,-1.449 -1.933,-3.151 -1.933,-5.107c-0,-1.956 0.635,-3.658 1.907,-5.107c1.271,-1.449 2.92,-2.173 4.946,-2.173l0.267,-0c0.089,-0 0.178,0.009 0.267,0.027c0.693,0.053 1.373,0.226 2.04,0.52c0.666,0.293 1.222,0.706 1.666,1.24l0,-1.36l4.854,-0Zm-7.814,3.76c-0.978,0.017 -1.742,0.333 -2.293,0.946c-0.551,0.614 -0.827,1.338 -0.827,2.174c0,0.871 0.276,1.6 0.827,2.186c0.551,0.587 1.315,0.88 2.293,0.88c0.996,0 1.765,-0.294 2.307,-0.883c0.542,-0.59 0.813,-1.322 0.813,-2.197c0,-0.839 -0.271,-1.566 -0.813,-2.182c-0.542,-0.616 -1.311,-0.924 -2.307,-0.924Z" style="fill:#fff;fill-rule:nonzero;"/></svg>